<svg width="43" height="22" viewBox="0 0 43 22" fill="none" xmlns="http://www.w3.org/2000/svg">
<path d="M1.34161 17.6217C1.14936 17.304 0.893027 16.7964 0.734701 16.4206C-0.188863 14.2198 -0.230329 11.9415 0.546219 9.75625C1.40193 7.35787 3.03795 5.52518 5.15273 4.58753C7.81033 3.41353 10.7469 3.64213 13.2952 5.19584C14.9123 6.149 16.0583 7.62135 16.9291 9.70588C17.0384 9.97323 17.1364 10.2561 17.2345 10.5002L1.34161 17.6217ZM6.64928 8.12504C4.76069 8.95808 3.78812 10.7791 3.99168 12.9102L11.9833 9.37267C10.6074 7.71434 8.8206 7.16414 6.64928 8.12504V8.12504ZM12.9785 15.82C12.9747 15.82 12.9747 15.8239 12.9747 15.8239L12.8089 15.7076C12.3301 16.5019 11.5875 17.149 10.6489 17.5675C8.86206 18.3656 7.20719 18.1603 6.01598 17.087L5.90666 17.2575C5.90666 17.2575 5.90666 17.2536 5.90289 17.2536L3.87482 20.3727C4.37995 20.733 4.91901 21.0352 5.48446 21.2793C7.72363 22.2364 10.0156 22.1899 12.2736 21.1825C13.9059 20.454 15.1875 19.3459 16.0621 17.9394L12.9785 15.82ZM22.7871 0V17.335L25.4108 18.4276L23.9218 22L21.0267 20.7601C20.3783 20.4695 19.9335 20.0278 19.6018 19.528C19.2814 19.0204 19.0439 18.3191 19.0439 17.3815V0H22.7871ZM29.58 12.9218C29.58 11.4456 30.2171 10.1205 31.2198 9.22156L28.5283 6.13737C26.7038 7.7957 25.5541 10.2173 25.5541 12.9141C25.5503 15.6147 26.7 18.0402 28.5208 19.6985L31.2085 16.6143C30.2096 15.7115 29.58 14.3942 29.58 12.9218V12.9218ZM34.36 17.8387C33.8322 17.8387 33.3195 17.7457 32.8446 17.583L31.5591 21.5079C32.4374 21.8101 33.3761 21.9768 34.3562 21.9768C38.6159 21.9806 42.1707 18.8732 42.9962 14.7467L39.0456 13.9176C38.597 16.161 36.6708 17.8426 34.36 17.8387V17.8387ZM34.3713 3.86685C33.3949 3.86685 32.4563 4.02959 31.578 4.32793L32.8521 8.25678C33.3309 8.09405 33.8398 8.00493 34.3675 8.00493C36.6821 8.00881 38.6121 9.69813 39.0494 11.9454L43 11.124C42.1895 6.98978 38.6347 3.87073 34.3713 3.86685V3.86685Z" fill="url(#paint0_linear_507_620)"/>
<defs>
<linearGradient id="paint0_linear_507_620" x1="21.5" y1="0" x2="21.5" y2="22" gradientUnits="userSpaceOnUse">
<stop stop-color="white"/>
<stop offset="1" stop-color="white" stop-opacity="0.75"/>
</linearGradient>
</defs>
</svg>
