<svg width="300" height="21" viewBox="0 0 300 21" fill="none" xmlns="http://www.w3.org/2000/svg">
<path d="M5.63636 11.3636H7.18182L8.47727 13.0682L8.81818 13.5227L10.75 16.0909H9.20455L7.93182 14.3863L7.61364 13.9545L5.63636 11.3636ZM11.2273 9.1818C11.2273 10.4091 11.0057 11.4697 10.5625 12.3636C10.1193 13.2576 9.51136 13.947 8.73864 14.4318C7.96591 14.9167 7.08333 15.1591 6.09091 15.1591C5.09849 15.1591 4.21591 14.9167 3.44318 14.4318C2.67045 13.947 2.0625 13.2576 1.61932 12.3636C1.17614 11.4697 0.954545 10.4091 0.954545 9.1818C0.954545 7.95453 1.17614 6.89392 1.61932 5.99998C2.0625 5.10605 2.67045 4.41665 3.44318 3.9318C4.21591 3.44695 5.09849 3.20453 6.09091 3.20453C7.08333 3.20453 7.96591 3.44695 8.73864 3.9318C9.51136 4.41665 10.1193 5.10605 10.5625 5.99998C11.0057 6.89392 11.2273 7.95453 11.2273 9.1818ZM9.86364 9.1818C9.86364 8.17423 9.69508 7.32385 9.35795 6.63067C9.02462 5.93748 8.57197 5.41286 8 5.0568C7.43182 4.70074 6.79545 4.52271 6.09091 4.52271C5.38636 4.52271 4.74811 4.70074 4.17614 5.0568C3.60795 5.41286 3.1553 5.93748 2.81818 6.63067C2.48485 7.32385 2.31818 8.17423 2.31818 9.1818C2.31818 10.1894 2.48485 11.0398 2.81818 11.7329C3.1553 12.4261 3.60795 12.9507 4.17614 13.3068C4.74811 13.6629 5.38636 13.8409 6.09091 13.8409C6.79545 13.8409 7.43182 13.6629 8 13.3068C8.57197 12.9507 9.02462 12.4261 9.35795 11.7329C9.69508 11.0398 9.86364 10.1894 9.86364 9.1818ZM21.233 3.36362H22.642V11.0682C22.642 11.8636 22.4545 12.5738 22.0795 13.1988C21.7083 13.8201 21.1837 14.3106 20.5057 14.6704C19.8277 15.0265 19.0322 15.2045 18.1193 15.2045C17.2064 15.2045 16.411 15.0265 15.733 14.6704C15.0549 14.3106 14.5284 13.8201 14.1534 13.1988C13.7822 12.5738 13.5966 11.8636 13.5966 11.0682V3.36362H15.0057V10.9545C15.0057 11.5227 15.1307 12.0284 15.3807 12.4716C15.6307 12.911 15.9867 13.2576 16.4489 13.5113C16.9148 13.7613 17.4716 13.8863 18.1193 13.8863C18.767 13.8863 19.3239 13.7613 19.7898 13.5113C20.2557 13.2576 20.6117 12.911 20.858 12.4716C21.108 12.0284 21.233 11.5227 21.233 10.9545V3.36362ZM26.8651 3.36362V15H25.456V3.36362H26.8651ZM39.054 6.99998H37.6449C37.5616 6.59468 37.4157 6.23862 37.2074 5.9318C37.0028 5.62498 36.7528 5.36741 36.4574 5.15908C36.1657 4.94695 35.8419 4.78786 35.4858 4.6818C35.1297 4.57574 34.7585 4.52271 34.3722 4.52271C33.6676 4.52271 33.0294 4.70074 32.4574 5.0568C31.8892 5.41286 31.4366 5.93748 31.0994 6.63067C30.7661 7.32385 30.5994 8.17423 30.5994 9.1818C30.5994 10.1894 30.7661 11.0398 31.0994 11.7329C31.4366 12.4261 31.8892 12.9507 32.4574 13.3068C33.0294 13.6629 33.6676 13.8409 34.3722 13.8409C34.7585 13.8409 35.1297 13.7879 35.4858 13.6818C35.8419 13.5757 36.1657 13.4185 36.4574 13.2102C36.7528 12.9981 37.0028 12.7386 37.2074 12.4318C37.4157 12.1212 37.5616 11.7651 37.6449 11.3636H39.054C38.9479 11.9583 38.7547 12.4905 38.4744 12.9602C38.1941 13.4299 37.8456 13.8295 37.429 14.1591C37.0123 14.4848 36.5445 14.7329 36.0256 14.9034C35.5104 15.0738 34.9593 15.1591 34.3722 15.1591C33.3797 15.1591 32.4972 14.9167 31.7244 14.4318C30.9517 13.947 30.3438 13.2576 29.9006 12.3636C29.4574 11.4697 29.2358 10.4091 29.2358 9.1818C29.2358 7.95453 29.4574 6.89392 29.9006 5.99998C30.3438 5.10605 30.9517 4.41665 31.7244 3.9318C32.4972 3.44695 33.3797 3.20453 34.3722 3.20453C34.9593 3.20453 35.5104 3.28976 36.0256 3.46021C36.5445 3.63067 37.0123 3.88067 37.429 4.21021C37.8456 4.53597 38.1941 4.9337 38.4744 5.40339C38.7547 5.8693 38.9479 6.4015 39.054 6.99998ZM41.331 15V3.36362H42.7401V9.13635H42.8764L48.1037 3.36362H49.9446L45.0582 8.61362L49.9446 15H48.2401L44.1946 9.59089L42.7401 11.2273V15H41.331Z" fill="#959595"/>
<path d="M51.3707 15V3.36362H55.9616C56.8442 3.36362 57.5961 3.53218 58.2173 3.8693C58.8385 4.20264 59.312 4.66665 59.6378 5.26135C59.9673 5.85226 60.1321 6.53408 60.1321 7.3068C60.1321 8.07953 59.9654 8.76135 59.6321 9.35226C59.2988 9.94317 58.8158 10.4034 58.1832 10.7329C57.5545 11.0625 56.7931 11.2273 55.8991 11.2273H52.973V9.25567H55.5014C55.9749 9.25567 56.3651 9.17423 56.6719 9.01135C56.9825 8.84468 57.2135 8.61551 57.3651 8.32385C57.5204 8.02839 57.598 7.68938 57.598 7.3068C57.598 6.92044 57.5204 6.58332 57.3651 6.29544C57.2135 6.00377 56.9825 5.77839 56.6719 5.6193C56.3613 5.45642 55.9673 5.37498 55.4901 5.37498H53.831V15H51.3707ZM62.392 15H59.7557L63.7727 3.36362H66.9432L70.9545 15H68.3182L65.4034 6.02271H65.3125L62.392 15ZM62.2273 10.4261H68.4545V12.3466H62.2273V10.4261ZM70.4858 3.36362H73.2415L75.8949 8.37498H76.0085L78.6619 3.36362H81.4176L77.1733 10.8863V15H74.7301V10.8863L70.4858 3.36362Z" fill="white"/>
<path fill-rule="evenodd" clip-rule="evenodd" d="M91.2028 13.8617L91.1995 13.8662L91.1963 13.8707C91.0183 14.1227 90.6196 14.1968 90.3077 13.9765C90.0581 13.8002 89.9831 13.4074 90.1957 13.097C90.5128 12.6927 90.7431 12.2201 90.8944 11.7581C91.0519 11.2771 91.1251 10.7305 91.1223 10.1944C91.1194 9.65838 91.0404 9.11262 90.8778 8.63333C90.7216 8.17295 90.4862 7.7028 90.1648 7.30194C89.9489 6.99377 90.0198 6.60017 90.2675 6.42122C90.577 6.19769 90.9765 6.26749 91.1571 6.51761L91.1604 6.5221L91.1637 6.5265C91.5638 7.05405 91.8919 7.64018 92.088 8.21523C92.2944 8.89171 92.4259 9.54608 92.4293 10.1875C92.4329 10.8624 92.3684 11.5013 92.1207 12.1302C91.851 12.8151 91.5898 13.34 91.2028 13.8617ZM94.0954 15.1145L94.1032 15.1034L94.1104 15.0919C94.9971 13.6713 95.5085 11.957 95.499 10.1711C95.4895 8.3857 94.9601 6.67737 94.0587 5.26646C93.8634 4.95669 93.9511 4.59045 94.2804 4.35261C94.5015 4.19288 94.9166 4.24944 95.1629 4.57952C96.1806 6.19416 96.7953 8.146 96.8061 10.1642C96.8172 12.2512 96.2238 14.1397 95.2224 15.7661C94.9908 16.085 94.6361 16.1743 94.3303 15.9936C93.9988 15.7507 93.9382 15.337 94.0954 15.1145ZM99.2861 2.45724L99.2948 2.47449L99.3049 2.49097C100.684 4.73919 101.45 7.33243 101.465 10.1394C101.48 12.945 100.742 15.5451 99.3884 17.8072C99.1808 18.1409 98.8304 18.235 98.4752 18.0697C98.1519 17.859 98.065 17.5098 98.2339 17.1571C99.3852 15.1125 100.101 12.703 100.088 10.1467C100.074 7.60176 99.4085 5.19618 98.1569 3.15136C97.9875 2.80221 98.0714 2.45448 98.3909 2.24137C98.7763 2.05725 99.1518 2.1922 99.2861 2.45724ZM103.369 0.317663L103.375 0.329447L103.382 0.340883C105.053 3.22941 106.035 6.53184 106.054 10.1149C106.073 13.6943 105.128 17.0039 103.491 19.9079C103.283 20.2378 102.934 20.3302 102.581 20.1656C102.259 19.9556 102.171 19.608 102.338 19.2564C103.915 16.5648 104.764 13.4463 104.747 10.1219C104.729 6.78887 103.772 3.68251 102.243 1.0174C102.051 0.628355 102.186 0.247321 102.454 0.111831C102.846 -0.0870443 103.232 0.0479557 103.369 0.317663Z" fill="white"/>
</svg>
